<svg xmlns="http://www.w3.org/2000/svg"  viewBox="0 0 16 16" width="30px" height="30px"><path fill="#bae0bd" d="M3.5,15.5v-4.161l-0.599,0.121C2.771,11.486,2.637,11.5,2.5,11.5c-1.103,0-2-0.897-2-2s0.897-2,2-2 c0.137,0,0.271,0.014,0.401,0.041L3.5,7.661V3.5h4.164L7.541,2.899C7.514,2.769,7.5,2.634,7.5,2.5c0-1.103,0.897-2,2-2s2,0.897,2,2 c0,0.134-0.014,0.269-0.041,0.399L11.336,3.5H15.5v3c-1.654,0-3,1.346-3,3s1.346,3,3,3v3H3.5z"/><path fill="#5e9c76" d="M9.5,1C10.327,1,11,1.673,11,2.5c0,0.1-0.01,0.202-0.03,0.301L10.726,4h1.224H15v2.036 C13.306,6.279,12,7.74,12,9.5s1.306,3.221,3,3.464V15H4v-3.05v-1.224L2.801,10.97C2.702,10.99,2.6,11,2.5,11 C1.673,11,1,10.327,1,9.5S1.673,8,2.5,8c0.1,0,0.202,0.01,0.301,0.03L4,8.274V7.05V4h3.05h1.224L8.03,2.801C8.01,2.702,8,2.6,8,2.5 C8,1.673,8.673,1,9.5,1 M9.5,0C8.119,0,7,1.119,7,2.5C7,2.671,7.018,2.838,7.05,3H3v4.05C2.838,7.018,2.671,7,2.5,7 C1.119,7,0,8.119,0,9.5C0,10.881,1.119,12,2.5,12c0.171,0,0.338-0.018,0.5-0.05V16h13v-4.05C15.838,11.982,15.671,12,15.5,12 c-1.381,0-2.5-1.119-2.5-2.5C13,8.119,14.119,7,15.5,7c0.171,0,0.338,0.018,0.5,0.05V3h-4.05C11.982,2.838,12,2.671,12,2.5 C12,1.119,10.881,0,9.5,0L9.5,0z"/></svg>